<?xml version="1.0" encoding="UTF-8"?>
<!DOCTYPE svg PUBLIC "-//W3C//DTD SVG 1.1//EN" "http://www.w3.org/Graphics/SVG/1.1/DTD/svg11.dtd">
<svg xmlns="http://www.w3.org/2000/svg" version="1.1" width="500px" height="500px" style="shape-rendering:geometricPrecision; text-rendering:geometricPrecision; image-rendering:optimizeQuality; fill-rule:evenodd; clip-rule:evenodd" xmlns:xlink="http://www.w3.org/1999/xlink">
<g><path style="opacity:1" fill="#5d8f33" d="M 267.5,82.5 C 268.806,83.4674 269.473,84.8007 269.5,86.5C 269.229,90.1363 267.563,92.9696 264.5,95C 239.282,93.064 215.116,97.2307 192,107.5C 186.395,105.572 181.562,102.405 177.5,98C 200.974,84.4647 226.308,78.1314 253.5,79C 258.516,79.254 263.183,80.4206 267.5,82.5 Z"/></g>
<g><path style="opacity:0.933" fill="#6f825d" d="M 267.5,82.5 C 271.563,82.616 272.23,83.9493 269.5,86.5C 269.473,84.8007 268.806,83.4674 267.5,82.5 Z"/></g>
<g><path style="opacity:1" fill="#5d8f34" d="M 353.5,123.5 C 354.08,125.749 355.413,127.415 357.5,128.5C 372.617,146.629 382.283,167.462 386.5,191C 378.814,180.224 371.147,169.057 363.5,157.5C 350.074,139.902 333.741,125.736 314.5,115C 302.569,109.366 290.235,104.866 277.5,101.5C 278.804,96.7226 280.804,92.2226 283.5,88C 304.924,92.0349 324.59,100.368 342.5,113C 346.668,116.002 350.335,119.502 353.5,123.5 Z"/></g>
<g><path style="opacity:0.671" fill="#5a6b4c" d="M 279.5,110.5 C 276.833,110.5 274.167,110.5 271.5,110.5C 271.47,109.503 271.97,108.836 273,108.5C 275.346,108.99 277.513,109.657 279.5,110.5 Z"/></g>
<g><path style="opacity:1" fill="#5d8e34" d="M 271.5,110.5 C 274.167,110.5 276.833,110.5 279.5,110.5C 304.264,115.795 325.43,127.462 343,145.5C 364.36,168.192 380.693,194.192 392,223.5C 392.867,232.646 393.367,241.813 393.5,251C 393.046,257.579 393.046,264.079 393.5,270.5C 393.192,271.308 392.692,271.975 392,272.5C 382.246,229.99 363.246,192.324 335,159.5C 325.689,150.518 315.522,142.685 304.5,136C 292.432,130.478 280.099,125.644 267.5,121.5C 266.825,117.196 268.159,113.529 271.5,110.5 Z"/></g>
<g><path style="opacity:1" fill="#627254" d="M 353.5,123.5 C 355.587,124.585 356.92,126.251 357.5,128.5C 355.413,127.415 354.08,125.749 353.5,123.5 Z"/></g>
<g><path style="opacity:1" fill="#3a7253" d="M 258.5,128.5 C 245.355,127.922 232.355,128.922 219.5,131.5C 223.817,129.421 228.484,128.254 233.5,128C 242.01,127.177 250.344,127.343 258.5,128.5 Z"/></g>
<g><path style="opacity:1" fill="#136534" d="M 258.5,128.5 C 292.373,134.095 319.706,150.428 340.5,177.5C 364.894,213.144 381.227,252.31 389.5,295C 387.854,306.071 385.521,316.905 382.5,327.5C 381.914,327.291 381.414,326.957 381,326.5C 375.036,291.278 365.036,257.278 351,224.5C 339.352,198.527 322.185,177.027 299.5,160C 286.649,151.577 272.649,145.91 257.5,143C 223.432,140.617 197.265,153.784 179,182.5C 161.807,215.04 157.14,249.373 165,285.5C 171.132,315.605 184.965,341.438 206.5,363C 211.167,366.333 215.833,369.667 220.5,373C 230.367,377.55 240.7,380.383 251.5,381.5C 259.568,382.828 267.735,382.828 276,381.5C 275.503,385.894 277.336,388.228 281.5,388.5C 288.885,390.468 296.218,392.302 303.5,394C 308.559,387.479 312.892,380.646 316.5,373.5C 316.859,375.831 317.526,375.665 318.5,373C 318.272,372.601 317.938,372.435 317.5,372.5C 318.5,371.5 319.5,370.5 320.5,369.5C 321.596,367.897 322.93,366.397 324.5,365C 323.915,363.698 323.249,362.531 322.5,361.5C 321.32,355.775 319.82,350.108 318,344.5C 307.627,344.799 304.293,340.132 308,330.5C 309.883,327.976 312.383,326.642 315.5,326.5C 315.443,322.495 314.11,318.995 311.5,316C 306.58,314.75 301.58,314.25 296.5,314.5C 296.176,310.445 296.509,306.445 297.5,302.5C 299.45,301.628 301.45,300.961 303.5,300.5C 305.423,296.971 306.089,292.971 305.5,288.5C 310.132,285.648 314.632,285.982 319,289.5C 324.149,310.096 328.982,330.763 333.5,351.5C 328.921,367.997 321.587,383.331 311.5,397.5C 311.957,398.298 312.624,398.631 313.5,398.5C 310.373,401.898 306.707,404.565 302.5,406.5C 297.678,403.377 292.511,400.71 287,398.5C 286.329,399.252 285.496,399.586 284.5,399.5C 281.908,396.544 278.574,395.211 274.5,395.5C 235.208,401.691 203.708,389.024 180,357.5C 145.311,306.352 137.644,251.352 157,192.5C 162.749,179.283 170.249,167.283 179.5,156.5C 183.1,154.57 186.1,151.903 188.5,148.5C 197.209,139.977 207.543,134.31 219.5,131.5C 232.355,128.922 245.355,127.922 258.5,128.5 Z"/></g>
<g><path style="opacity:1" fill="#3f6952" d="M 188.5,148.5 C 186.1,151.903 183.1,154.57 179.5,156.5C 181.9,153.097 184.9,150.43 188.5,148.5 Z"/></g>
<g><path style="opacity:1" fill="#02632f" d="M 184.5,195.5 C 186.965,197.553 188.632,200.386 189.5,204C 188.636,205.137 187.636,206.47 186.5,208C 188.107,213.054 189.107,218.221 189.5,223.5C 189.336,226.187 189.503,228.854 190,231.5C 192.629,234.394 192.795,237.227 190.5,240C 192.795,240.984 192.461,241.817 189.5,242.5C 188.494,242.062 188.494,241.396 189.5,240.5C 186.814,239.94 185.147,238.94 184.5,237.5C 179.268,223.359 179.268,209.359 184.5,195.5 Z"/></g>
<g><path style="opacity:1" fill="#146535" d="M 373.5,330.5 C 373.718,335.038 374.718,339.371 376.5,343.5C 374.137,351.221 370.97,358.555 367,365.5C 366.667,365.167 366.333,364.833 366,364.5C 361.503,346.701 357.836,328.701 355,310.5C 349.609,286.995 342.609,263.995 334,241.5C 328.429,228.01 321.096,215.677 312,204.5C 311.294,208.887 311.46,213.22 312.5,217.5C 310.765,224.467 308.765,231.467 306.5,238.5C 307.127,239.417 307.461,240.417 307.5,241.5C 306.624,241.369 305.957,241.702 305.5,242.5C 304.167,245.5 302.833,248.5 301.5,251.5C 307.891,263.678 306.557,274.845 297.5,285C 293.741,286.69 290.241,286.19 287,283.5C 286.333,281.833 286.333,280.167 287,278.5C 290.038,275.797 292.705,272.797 295,269.5C 295.352,263.023 293.518,257.19 289.5,252C 304.546,231.316 306.38,209.482 295,186.5C 275.278,159.943 250.112,153.11 219.5,166C 198.312,179.205 188.312,198.372 189.5,223.5C 189.107,218.221 188.107,213.054 186.5,208C 187.636,206.47 188.636,205.137 189.5,204C 188.632,200.386 186.965,197.553 184.5,195.5C 184.586,193.323 185.253,191.323 186.5,189.5C 186.376,188.893 186.043,188.56 185.5,188.5C 203.331,156.422 230.331,144.589 266.5,153C 288.546,160.711 307.046,173.545 322,191.5C 338.862,215.229 351.529,241.229 360,269.5C 365.459,289.627 369.959,309.96 373.5,330.5 Z"/></g>
<g><path style="opacity:1" fill="#136534" d="M 234.5,177.5 C 246.498,176.815 253.498,182.315 255.5,194C 252.016,207.243 243.683,211.91 230.5,208C 219.797,200.247 218.797,191.414 227.5,181.5C 229.765,179.873 232.099,178.539 234.5,177.5 Z"/></g>
<g><path style="opacity:1" fill="#5d8f33" d="M 312.5,217.5 C 324.97,238.031 334.47,260.031 341,283.5C 344.538,299.521 348.205,315.521 352,331.5C 352.889,335.152 353.222,338.818 353,342.5C 349.667,347.833 346.333,353.167 343,358.5C 340.044,349.678 337.878,340.678 336.5,331.5C 336.829,328.772 336.163,326.438 334.5,324.5C 330.296,305.685 325.463,287.018 320,268.5C 316.69,259.054 312.523,250.054 307.5,241.5C 307.461,240.417 307.127,239.417 306.5,238.5C 308.765,231.467 310.765,224.467 312.5,217.5 Z"/></g>
<g><path style="opacity:1" fill="#5d8f32" d="M 185.5,188.5 C 186.043,188.56 186.376,188.893 186.5,189.5C 185.253,191.323 184.586,193.323 184.5,195.5C 179.268,209.359 179.268,223.359 184.5,237.5C 184.5,239.167 184.5,240.833 184.5,242.5C 184.195,275.635 193.029,305.968 211,333.5C 225.937,352.884 245.771,361.551 270.5,359.5C 270.5,360.5 270.5,361.5 270.5,362.5C 271.449,365.872 271.449,369.205 270.5,372.5C 264.537,373.496 258.537,373.829 252.5,373.5C 238.374,372.849 225.707,368.349 214.5,360C 189.211,335.921 174.711,306.421 171,271.5C 167.923,249.039 169.923,227.039 177,205.5C 179.225,199.467 182.058,193.8 185.5,188.5 Z"/></g>
<g><path style="opacity:1" fill="#146535" d="M 189.5,223.5 C 194.77,247.277 209.27,262.611 233,269.5C 234.994,278.314 237.494,286.981 240.5,295.5C 244.783,296.492 249.116,296.826 253.5,296.5C 254.092,299.127 254.425,301.794 254.5,304.5C 252.833,304.5 251.167,304.5 249.5,304.5C 249.286,306.144 249.62,307.644 250.5,309C 252.659,309.912 254.825,310.745 257,311.5C 259.27,316.246 260.437,321.246 260.5,326.5C 250.429,326.98 242.263,323.313 236,315.5C 226.853,303.244 220.686,289.577 217.5,274.5C 215.27,273.217 212.937,272.217 210.5,271.5C 210.631,270.761 210.464,270.094 210,269.5C 204.279,264.606 198.779,259.606 193.5,254.5C 190.5,250.5 187.5,246.5 184.5,242.5C 184.5,240.833 184.5,239.167 184.5,237.5C 185.147,238.94 186.814,239.94 189.5,240.5C 188.494,241.396 188.494,242.062 189.5,242.5C 192.461,241.817 192.795,240.984 190.5,240C 192.795,237.227 192.629,234.394 190,231.5C 189.503,228.854 189.336,226.187 189.5,223.5 Z"/></g>
<g><path style="opacity:0.914" fill="#447c5d" d="M 100.5,235.5 C 100.371,251.18 100.704,266.847 101.5,282.5C 100.013,273.211 99.3459,263.711 99.5,254C 99.5004,247.657 99.8338,241.491 100.5,235.5 Z"/></g>
<g><path style="opacity:1" fill="#5d8f33" d="M 193.5,254.5 C 198.779,259.606 204.279,264.606 210,269.5C 210.464,270.094 210.631,270.761 210.5,271.5C 213.265,288.025 219.099,303.359 228,317.5C 232.532,322.367 237.366,326.867 242.5,331C 248.977,333.286 255.644,334.619 262.5,335C 264.874,340.287 266.54,345.787 267.5,351.5C 247.181,353.127 230.681,346.127 218,330.5C 201.73,307.856 193.564,282.523 193.5,254.5 Z"/></g>
<g><path style="opacity:1" fill="#136535" d="M 242.5,404.5 C 241.191,406.571 240.525,409.071 240.5,412C 240.548,414.919 240.881,417.752 241.5,420.5C 212.687,418.261 189.021,406.261 170.5,384.5C 135.852,341.38 120.352,292.047 124,236.5C 126.029,199.047 139.363,166.38 164,138.5C 185.997,115.989 212.83,103.989 244.5,102.5C 248.432,102.846 252.265,103.513 256,104.5C 257.581,110.062 256.081,114.562 251.5,118C 210.928,118.856 180.095,136.356 159,170.5C 137.835,210.823 132.835,253.157 144,297.5C 149.849,317.186 157.849,335.853 168,353.5C 185.194,381.834 210.028,398.834 242.5,404.5 Z"/></g>
<g><path style="opacity:0.596" fill="#4a5e53" d="M 305.5,288.5 C 306.089,292.971 305.423,296.971 303.5,300.5C 304.109,296.395 304.775,292.395 305.5,288.5 Z"/></g>
<g><path style="opacity:1" fill="#116434" d="M 242.5,428.5 C 254.41,429.863 266.41,429.363 278.5,427C 280.723,426.434 282.723,425.6 284.5,424.5C 312.716,413.792 333.55,394.792 347,367.5C 349.044,366.228 350.878,366.561 352.5,368.5C 356.021,371.187 359.021,374.353 361.5,378C 324.871,438.269 272.538,458.269 204.5,438C 182.317,429.148 163.484,415.648 148,397.5C 121.483,363.775 105.983,325.442 101.5,282.5C 100.704,266.847 100.371,251.18 100.5,235.5C 103.226,183.219 124.226,140.052 163.5,106C 164.833,105.333 166.167,105.333 167.5,106C 171.397,109.109 175.064,112.443 178.5,116C 150.977,136.538 132.477,163.371 123,196.5C 105.955,265.942 118.622,329.275 161,386.5C 176.253,405.208 195.419,418.041 218.5,425C 226.436,426.641 234.436,427.808 242.5,428.5 Z"/></g>
<g><path style="opacity:0.984" fill="#6a7f56" d="M 334.5,324.5 C 336.163,326.438 336.829,328.772 336.5,331.5C 335.388,329.401 334.721,327.067 334.5,324.5 Z"/></g>
<g><path style="opacity:0.631" fill="#536058" d="M 373.5,330.5 C 374.469,332.663 375.302,334.996 376,337.5C 376.998,334.972 377.831,334.972 378.5,337.5C 378.122,339.717 377.455,341.717 376.5,343.5C 374.718,339.371 373.718,335.038 373.5,330.5 Z"/></g>
<g><path style="opacity:1" fill="#5e8e32" d="M 333.5,351.5 C 334.51,357.031 336.51,362.198 339.5,367C 332.479,378.855 323.812,389.355 313.5,398.5C 312.624,398.631 311.957,398.298 311.5,397.5C 321.587,383.331 328.921,367.997 333.5,351.5 Z"/></g>
<g><path style="opacity:0.937" fill="#bab5a2" d="M 322.5,361.5 C 323.249,362.531 323.915,363.698 324.5,365C 322.93,366.397 321.596,367.897 320.5,369.5C 320.963,366.779 321.629,364.112 322.5,361.5 Z"/></g>
<g><path style="opacity:0.937" fill="#c2c0c5" d="M 317.5,372.5 C 317.938,372.435 318.272,372.601 318.5,373C 317.526,375.665 316.859,375.831 316.5,373.5C 316.5,372.833 316.833,372.5 317.5,372.5 Z"/></g>
<g><path style="opacity:0.91" fill="#6e8b57" d="M 270.5,362.5 C 272.687,366.079 273.354,369.913 272.5,374C 265.654,374.821 258.987,374.654 252.5,373.5C 258.537,373.829 264.537,373.496 270.5,372.5C 271.449,369.205 271.449,365.872 270.5,362.5 Z"/></g>
<g><path style="opacity:1" fill="#426751" d="M 281.5,388.5 C 277.336,388.228 275.503,385.894 276,381.5C 267.735,382.828 259.568,382.828 251.5,381.5C 260.208,381.745 268.874,381.411 277.5,380.5C 277.278,384.056 278.611,386.723 281.5,388.5 Z"/></g>
<g><path style="opacity:1" fill="#5d8f34" d="M 302.5,406.5 C 291.039,414.049 278.372,418.549 264.5,420C 256.841,420.5 249.174,420.666 241.5,420.5C 240.881,417.752 240.548,414.919 240.5,412C 240.525,409.071 241.191,406.571 242.5,404.5C 256.871,405.603 270.871,403.936 284.5,399.5C 285.496,399.586 286.329,399.252 287,398.5C 292.511,400.71 297.678,403.377 302.5,406.5 Z"/></g>
<g><path style="opacity:1" fill="#3f6e53" d="M 284.5,424.5 C 282.723,425.6 280.723,426.434 278.5,427C 266.41,429.363 254.41,429.863 242.5,428.5C 256.695,428.975 270.695,427.642 284.5,424.5 Z"/></g>
</svg>
